<svg xmlns="http://www.w3.org/2000/svg" xmlns:xlink="http://www.w3.org/1999/xlink" width="500" zoomAndPan="magnify" viewBox="0 0 375 374.999991" height="500" preserveAspectRatio="xMidYMid meet" version="1.0"><path fill="#fbbc04" d="M 216.589844 40.757812 C 219.015625 41.210938 221.363281 41.742188 223.710938 42.347656 L 233.183594 5.53125 C 230.074219 4.773438 226.894531 4.089844 223.710938 3.410156 Z M 216.589844 40.757812 " fill-opacity="1" fill-rule="nonzero"/><path fill="#fbbc04" d="M 307.804688 43.710938 L 283.5625 73.03125 C 285.453125 74.621094 287.273438 76.210938 289.015625 77.878906 L 315 50.152344 C 312.726562 47.878906 310.304688 45.757812 307.804688 43.710938 Z M 307.804688 43.710938 " fill-opacity="1" fill-rule="nonzero"/><path fill="#fbbc04" d="M 207.273438 39.242188 C 209.695312 39.546875 212.121094 39.925781 214.46875 40.378906 L 221.589844 3.105469 C 218.410156 2.5 215.226562 2.046875 212.046875 1.589844 Z M 207.273438 39.242188 " fill-opacity="1" fill-rule="nonzero"/><path fill="#fbbc04" d="M 234.695312 45.53125 C 237.046875 46.289062 239.316406 47.121094 241.589844 48.03125 L 255.605469 12.652344 C 252.574219 11.515625 249.546875 10.378906 246.515625 9.394531 Z M 234.695312 45.53125 " fill-opacity="1" fill-rule="nonzero"/><path fill="#fbbc04" d="M 188.5625 37.953125 C 190.984375 37.953125 193.410156 38.03125 195.832031 38.183594 L 198.183594 0.304688 C 195 0.152344 191.742188 0 188.484375 0 L 188.484375 37.953125 Z M 188.5625 37.953125 " fill-opacity="1" fill-rule="nonzero"/><path fill="#fbbc04" d="M 197.953125 38.257812 C 200.378906 38.410156 202.804688 38.636719 205.226562 38.9375 L 210 1.289062 C 206.816406 0.910156 203.5625 0.605469 200.378906 0.378906 Z M 197.953125 38.257812 " fill-opacity="1" fill-rule="nonzero"/><path fill="#fbbc04" d="M 268.484375 61.816406 C 270.53125 63.105469 272.5 64.546875 274.46875 65.910156 L 296.816406 35.152344 C 294.167969 33.257812 291.515625 31.4375 288.863281 29.695312 Z M 268.484375 61.816406 " fill-opacity="1" fill-rule="nonzero"/><path fill="#fbbc04" d="M 276.210938 67.121094 C 278.183594 68.5625 280.074219 70.074219 281.96875 71.589844 L 306.210938 42.273438 C 303.710938 40.226562 301.136719 38.257812 298.5625 36.363281 Z M 276.210938 67.121094 " fill-opacity="1" fill-rule="nonzero"/><path fill="#fbbc04" d="M 179.167969 38.183594 C 181.589844 38.03125 184.015625 37.953125 186.4375 37.953125 L 186.4375 0 C 183.183594 0 180 0.152344 176.742188 0.304688 Z M 179.167969 38.183594 " fill-opacity="1" fill-rule="nonzero"/><path fill="#fbbc04" d="M 252.121094 52.574219 C 254.316406 53.636719 256.515625 54.773438 258.636719 55.910156 L 276.96875 22.574219 C 274.167969 21.0625 271.289062 19.546875 268.332031 18.183594 Z M 252.121094 52.574219 " fill-opacity="1" fill-rule="nonzero"/><path fill="#fbbc04" d="M 243.5625 48.789062 C 245.832031 49.695312 248.03125 50.683594 250.226562 51.667969 L 266.4375 17.273438 C 263.484375 15.910156 260.53125 14.621094 257.574219 13.410156 Z M 243.5625 48.789062 " fill-opacity="1" fill-rule="nonzero"/><path fill="#fbbc04" d="M 260.453125 56.96875 C 262.574219 58.183594 264.695312 59.394531 266.742188 60.683594 L 287.121094 28.5625 C 284.394531 26.816406 281.589844 25.226562 278.789062 23.636719 Z M 260.453125 56.96875 " fill-opacity="1" fill-rule="nonzero"/><path fill="#fbbc04" d="M 225.757812 42.878906 C 228.105469 43.484375 230.453125 44.167969 232.726562 44.925781 L 244.46875 8.789062 C 241.363281 7.804688 238.332031 6.894531 235.152344 6.136719 Z M 225.757812 42.878906 " fill-opacity="1" fill-rule="nonzero"/><path fill="#fbbc04" d="M 116.363281 55.910156 C 118.484375 54.773438 120.683594 53.636719 122.878906 52.574219 L 106.667969 18.183594 C 103.789062 19.546875 100.910156 21.0625 98.03125 22.574219 Z M 116.363281 55.910156 " fill-opacity="1" fill-rule="nonzero"/><path fill="#fbbc04" d="M 100.453125 65.910156 C 102.425781 64.46875 104.46875 63.105469 106.4375 61.816406 L 86.0625 29.695312 C 83.332031 31.4375 80.683594 33.257812 78.105469 35.152344 Z M 100.453125 65.910156 " fill-opacity="1" fill-rule="nonzero"/><path fill="#fbbc04" d="M 108.257812 60.683594 C 110.304688 59.394531 112.425781 58.183594 114.546875 56.96875 L 96.210938 23.636719 C 93.410156 25.226562 90.605469 26.816406 87.878906 28.5625 Z M 108.257812 60.683594 " fill-opacity="1" fill-rule="nonzero"/><path fill="#fbbc04" d="M 67.195312 331.289062 L 91.4375 301.96875 C 89.546875 300.378906 87.726562 298.789062 85.984375 297.121094 L 60 324.847656 C 62.273438 327.121094 64.695312 329.242188 67.195312 331.289062 Z M 67.195312 331.289062 " fill-opacity="1" fill-rule="nonzero"/><path fill="#fbbc04" d="M 169.773438 38.9375 C 172.195312 38.636719 174.621094 38.410156 177.046875 38.257812 L 174.695312 0.378906 C 171.4375 0.605469 168.257812 0.910156 165.074219 1.289062 Z M 169.773438 38.9375 " fill-opacity="1" fill-rule="nonzero"/><path fill="#fbbc04" d="M 85.910156 77.804688 C 87.726562 76.136719 89.546875 74.546875 91.363281 72.953125 L 67.121094 43.636719 C 64.695312 45.683594 62.273438 47.804688 59.847656 50.074219 Z M 85.910156 77.804688 " fill-opacity="1" fill-rule="nonzero"/><path fill="#fbbc04" d="M 124.773438 51.742188 C 126.96875 50.757812 129.167969 49.773438 131.4375 48.863281 L 117.425781 13.484375 C 114.394531 14.695312 111.4375 15.984375 108.5625 17.347656 Z M 124.773438 51.742188 " fill-opacity="1" fill-rule="nonzero"/><path fill="#fbbc04" d="M 160.53125 40.378906 C 162.878906 39.925781 165.304688 39.546875 167.726562 39.242188 L 162.953125 1.589844 C 159.773438 2.046875 156.589844 2.5 153.410156 3.105469 Z M 160.53125 40.378906 " fill-opacity="1" fill-rule="nonzero"/><path fill="#fbbc04" d="M 151.289062 42.347656 C 153.636719 41.742188 155.984375 41.210938 158.410156 40.757812 L 151.289062 3.484375 C 148.105469 4.089844 145 4.773438 141.816406 5.605469 Z M 151.289062 42.347656 " fill-opacity="1" fill-rule="nonzero"/><path fill="#fbbc04" d="M 133.410156 48.03125 C 135.683594 47.121094 137.953125 46.289062 140.304688 45.53125 L 128.5625 9.394531 C 125.53125 10.378906 122.425781 11.515625 119.46875 12.652344 Z M 133.410156 48.03125 " fill-opacity="1" fill-rule="nonzero"/><path fill="#fbbc04" d="M 142.273438 44.925781 C 144.546875 44.167969 146.894531 43.484375 149.242188 42.878906 L 139.773438 6.0625 C 136.667969 6.894531 133.5625 7.804688 130.453125 8.710938 Z M 142.273438 44.925781 " fill-opacity="1" fill-rule="nonzero"/><path fill="#fbbc04" d="M 93.03125 71.589844 C 94.925781 70.074219 96.816406 68.5625 98.789062 67.121094 L 76.4375 36.363281 C 73.863281 38.257812 71.289062 40.226562 68.789062 42.273438 Z M 93.03125 71.589844 " fill-opacity="1" fill-rule="nonzero"/><path fill="#fbbc04" d="M 314.316406 108.257812 C 315.605469 110.304688 316.816406 112.425781 318.03125 114.546875 L 351.363281 96.210938 C 349.773438 93.410156 348.183594 90.605469 346.4375 87.878906 Z M 314.316406 108.257812 " fill-opacity="1" fill-rule="nonzero"/><path fill="#fbbc04" d="M 319.089844 116.363281 C 320.226562 118.484375 321.363281 120.683594 322.425781 122.878906 L 356.816406 106.667969 C 355.453125 103.789062 353.9375 100.910156 352.425781 98.03125 Z M 319.089844 116.363281 " fill-opacity="1" fill-rule="nonzero"/><path fill="#fbbc04" d="M 309.089844 100.453125 C 310.53125 102.425781 311.894531 104.46875 313.183594 106.4375 L 345.304688 86.0625 C 343.5625 83.332031 341.742188 80.683594 339.847656 78.105469 Z M 309.089844 100.453125 " fill-opacity="1" fill-rule="nonzero"/><path fill="#fbbc04" d="M 323.257812 124.773438 C 324.242188 126.96875 325.226562 129.167969 326.136719 131.4375 L 361.515625 117.425781 C 360.304688 114.394531 359.015625 111.4375 357.652344 108.5625 Z M 323.257812 124.773438 " fill-opacity="1" fill-rule="nonzero"/><path fill="#fbbc04" d="M 290.605469 79.242188 C 292.347656 80.910156 294.089844 82.652344 295.757812 84.394531 L 323.484375 58.410156 C 322.347656 57.273438 321.289062 56.0625 320.074219 54.925781 C 318.9375 53.789062 317.804688 52.652344 316.589844 51.515625 Z M 290.605469 79.242188 " fill-opacity="1" fill-rule="nonzero"/><path fill="#fbbc04" d="M 297.195312 85.910156 C 298.863281 87.726562 300.453125 89.546875 302.046875 91.363281 L 331.363281 67.121094 C 329.316406 64.695312 327.195312 62.273438 324.925781 59.847656 Z M 297.195312 85.910156 " fill-opacity="1" fill-rule="nonzero"/><path fill="#fbbc04" d="M 330.074219 142.273438 C 330.832031 144.546875 331.515625 146.894531 332.121094 149.242188 L 368.9375 139.773438 C 368.105469 136.667969 367.195312 133.5625 366.289062 130.453125 Z M 330.074219 142.273438 " fill-opacity="1" fill-rule="nonzero"/><path fill="#fbbc04" d="M 373.710938 165.074219 L 336.058594 169.847656 C 336.363281 172.273438 336.589844 174.695312 336.742188 177.121094 L 374.621094 174.773438 C 374.394531 171.4375 374.089844 168.257812 373.710938 165.074219 Z M 373.710938 165.074219 " fill-opacity="1" fill-rule="nonzero"/><path fill="#fbbc04" d="M 334.621094 160.53125 C 335.074219 162.878906 335.453125 165.304688 335.757812 167.726562 L 373.410156 162.953125 C 372.953125 159.773438 372.5 156.589844 371.894531 153.410156 Z M 334.621094 160.53125 " fill-opacity="1" fill-rule="nonzero"/><path fill="#fbbc04" d="M 331.289062 307.804688 L 301.96875 283.5625 C 300.378906 285.453125 298.789062 287.273438 297.121094 289.015625 L 324.847656 315 C 327.121094 312.726562 329.242188 310.304688 331.289062 307.804688 Z M 331.289062 307.804688 " fill-opacity="1" fill-rule="nonzero"/><path fill="#fbbc04" d="M 332.652344 151.289062 C 333.257812 153.636719 333.789062 155.984375 334.242188 158.410156 L 371.515625 151.289062 C 370.910156 148.105469 370.226562 145 369.394531 141.816406 Z M 332.652344 151.289062 " fill-opacity="1" fill-rule="nonzero"/><path fill="#fbbc04" d="M 326.96875 133.410156 C 327.878906 135.683594 328.710938 137.953125 329.46875 140.304688 L 365.605469 128.5625 C 364.621094 125.53125 363.484375 122.425781 362.347656 119.46875 Z M 326.96875 133.410156 " fill-opacity="1" fill-rule="nonzero"/><path fill="#fbbc04" d="M 303.410156 93.03125 C 304.925781 94.925781 306.4375 96.816406 307.878906 98.789062 L 338.636719 76.4375 C 336.742188 73.863281 334.773438 71.289062 332.726562 68.789062 Z M 303.410156 93.03125 " fill-opacity="1" fill-rule="nonzero"/><path fill="#fbbc04" d="M 307.878906 276.210938 C 306.4375 278.183594 304.925781 280.074219 303.410156 281.96875 L 332.726562 306.210938 C 334.773438 303.710938 336.742188 301.136719 338.636719 298.5625 Z M 307.878906 276.210938 " fill-opacity="1" fill-rule="nonzero"/><path fill="#fbbc04" d="M 334.242188 216.589844 C 333.789062 219.015625 333.257812 221.363281 332.652344 223.710938 L 369.46875 233.183594 C 370.226562 230.074219 370.910156 226.894531 371.589844 223.710938 Z M 334.242188 216.589844 " fill-opacity="1" fill-rule="nonzero"/><path fill="#fbbc04" d="M 332.121094 225.757812 C 331.515625 228.105469 330.832031 230.453125 330.074219 232.726562 L 366.210938 244.46875 C 367.195312 241.363281 368.105469 238.332031 368.863281 235.152344 Z M 332.121094 225.757812 " fill-opacity="1" fill-rule="nonzero"/><path fill="#fbbc04" d="M 336.742188 197.953125 C 336.589844 200.378906 336.363281 202.804688 336.0625 205.226562 L 373.710938 210 C 374.089844 206.816406 374.394531 203.5625 374.621094 200.378906 Z M 336.742188 197.953125 " fill-opacity="1" fill-rule="nonzero"/><path fill="#fbbc04" d="M 337.046875 188.5625 C 337.046875 190.984375 336.96875 193.410156 336.816406 195.832031 L 374.695312 198.183594 C 374.847656 195 375 191.742188 375 188.484375 L 337.046875 188.484375 Z M 337.046875 188.5625 " fill-opacity="1" fill-rule="nonzero"/><path fill="#fbbc04" d="M 336.816406 179.167969 C 336.96875 181.589844 337.046875 184.015625 337.046875 186.4375 L 375 186.4375 C 375 183.183594 374.847656 180 374.695312 176.742188 Z M 336.816406 179.167969 " fill-opacity="1" fill-rule="nonzero"/><path fill="#fbbc04" d="M 335.757812 207.273438 C 335.453125 209.695312 335.074219 212.121094 334.621094 214.46875 L 371.894531 221.589844 C 372.5 218.410156 372.953125 215.226562 373.410156 212.046875 Z M 335.757812 207.273438 " fill-opacity="1" fill-rule="nonzero"/><path fill="#fbbc04" d="M 318.03125 260.453125 C 316.816406 262.574219 315.605469 264.695312 314.316406 266.742188 L 346.4375 287.121094 C 348.183594 284.394531 349.773438 281.589844 351.363281 278.789062 Z M 318.03125 260.453125 " fill-opacity="1" fill-rule="nonzero"/><path fill="#fbbc04" d="M 313.183594 268.484375 C 311.894531 270.53125 310.453125 272.5 309.089844 274.46875 L 339.847656 296.816406 C 341.742188 294.167969 343.5625 291.515625 345.304688 288.863281 Z M 313.183594 268.484375 " fill-opacity="1" fill-rule="nonzero"/><path fill="#fbbc04" d="M 326.210938 243.5625 C 325.304688 245.832031 324.316406 248.03125 323.332031 250.226562 L 357.726562 266.4375 C 359.089844 263.484375 360.378906 260.53125 361.589844 257.574219 Z M 326.210938 243.5625 " fill-opacity="1" fill-rule="nonzero"/><path fill="#fbbc04" d="M 329.46875 234.695312 C 328.710938 237.046875 327.878906 239.316406 326.96875 241.589844 L 362.347656 255.605469 C 363.484375 252.574219 364.621094 249.546875 365.605469 246.515625 Z M 329.46875 234.695312 " fill-opacity="1" fill-rule="nonzero"/><path fill="#fbbc04" d="M 322.425781 252.121094 C 321.363281 254.316406 320.226562 256.515625 319.089844 258.636719 L 352.425781 276.96875 C 353.9375 274.167969 355.453125 271.289062 356.816406 268.332031 Z M 322.425781 252.121094 " fill-opacity="1" fill-rule="nonzero"/><path fill="#fbbc04" d="M 98.789062 307.878906 C 96.816406 306.4375 94.925781 304.925781 93.03125 303.410156 L 68.789062 332.726562 C 71.289062 334.773438 73.863281 336.742188 76.4375 338.636719 Z M 98.789062 307.878906 " fill-opacity="1" fill-rule="nonzero"/><path fill="#fbbc04" d="M 38.257812 177.046875 C 38.410156 174.621094 38.636719 172.195312 38.9375 169.773438 L 1.289062 165 C 0.910156 168.183594 0.605469 171.4375 0.378906 174.621094 Z M 38.257812 177.046875 " fill-opacity="1" fill-rule="nonzero"/><path fill="#fbbc04" d="M 37.953125 186.4375 C 37.953125 184.015625 38.03125 181.589844 38.183594 179.167969 L 0.304688 176.816406 C 0.152344 180 0 183.257812 0 186.515625 L 37.953125 186.515625 Z M 37.953125 186.4375 " fill-opacity="1" fill-rule="nonzero"/><path fill="#fbbc04" d="M 39.242188 167.726562 C 39.546875 165.304688 39.925781 162.878906 40.378906 160.53125 L 3.105469 153.410156 C 2.5 156.589844 2.046875 159.773438 1.589844 162.953125 Z M 39.242188 167.726562 " fill-opacity="1" fill-rule="nonzero"/><path fill="#fbbc04" d="M 40.757812 158.410156 C 41.210938 155.984375 41.742188 153.636719 42.347656 151.289062 L 5.53125 141.894531 C 4.773438 145 4.089844 148.183594 3.410156 151.363281 Z M 40.757812 158.410156 " fill-opacity="1" fill-rule="nonzero"/><path fill="#fbbc04" d="M 38.9375 205.226562 C 38.636719 202.804688 38.410156 200.378906 38.257812 197.953125 L 0.378906 200.304688 C 0.605469 203.5625 0.910156 206.742188 1.289062 209.925781 Z M 38.9375 205.226562 " fill-opacity="1" fill-rule="nonzero"/><path fill="#fbbc04" d="M 38.183594 195.832031 C 38.03125 193.410156 37.953125 190.984375 37.953125 188.5625 L 0 188.5625 C 0 191.816406 0.152344 195 0.304688 198.257812 Z M 38.183594 195.832031 " fill-opacity="1" fill-rule="nonzero"/><path fill="#fbbc04" d="M 48.789062 131.4375 C 49.695312 129.167969 50.683594 126.96875 51.667969 124.773438 L 17.273438 108.5625 C 15.910156 111.515625 14.621094 114.46875 13.410156 117.425781 Z M 48.789062 131.4375 " fill-opacity="1" fill-rule="nonzero"/><path fill="#fbbc04" d="M 52.574219 122.878906 C 53.636719 120.683594 54.773438 118.484375 55.910156 116.363281 L 22.574219 98.03125 C 21.0625 100.832031 19.546875 103.710938 18.183594 106.667969 Z M 52.574219 122.878906 " fill-opacity="1" fill-rule="nonzero"/><path fill="#fbbc04" d="M 61.816406 106.515625 C 63.105469 104.46875 64.546875 102.5 65.910156 100.53125 L 35.152344 78.183594 C 33.257812 80.832031 31.4375 83.484375 29.695312 86.136719 Z M 61.816406 106.515625 " fill-opacity="1" fill-rule="nonzero"/><path fill="#fbbc04" d="M 56.96875 114.546875 C 58.183594 112.425781 59.394531 110.304688 60.683594 108.257812 L 28.5625 87.878906 C 26.816406 90.605469 25.226562 93.410156 23.636719 96.210938 Z M 56.96875 114.546875 " fill-opacity="1" fill-rule="nonzero"/><path fill="#fbbc04" d="M 45.53125 140.304688 C 46.289062 137.953125 47.121094 135.683594 48.03125 133.410156 L 12.652344 119.394531 C 11.515625 122.425781 10.378906 125.453125 9.394531 128.484375 Z M 45.53125 140.304688 " fill-opacity="1" fill-rule="nonzero"/><path fill="#fbbc04" d="M 40.378906 214.46875 C 39.925781 212.121094 39.546875 209.695312 39.242188 207.273438 L 1.589844 212.046875 C 2.046875 215.226562 2.5 218.410156 3.105469 221.589844 Z M 40.378906 214.46875 " fill-opacity="1" fill-rule="nonzero"/><path fill="#fbbc04" d="M 42.878906 149.242188 C 43.484375 146.894531 44.167969 144.546875 44.925781 142.273438 L 8.789062 130.53125 C 7.804688 133.636719 6.894531 136.667969 6.136719 139.847656 Z M 42.878906 149.242188 " fill-opacity="1" fill-rule="nonzero"/><path fill="#fbbc04" d="M 42.347656 223.710938 C 41.742188 221.363281 41.210938 219.015625 40.757812 216.589844 L 3.484375 223.710938 C 4.089844 226.894531 4.773438 230 5.605469 233.183594 Z M 42.347656 223.710938 " fill-opacity="1" fill-rule="nonzero"/><path fill="#fbbc04" d="M 71.589844 281.96875 C 70.074219 280.074219 68.5625 278.183594 67.121094 276.210938 L 36.363281 298.5625 C 38.257812 301.136719 40.226562 303.710938 42.273438 306.210938 Z M 71.589844 281.96875 " fill-opacity="1" fill-rule="nonzero"/><path fill="#fbbc04" d="M 84.394531 295.757812 C 82.652344 294.089844 80.910156 292.347656 79.242188 290.605469 L 51.515625 316.589844 C 52.652344 317.726562 53.710938 318.9375 54.925781 320.074219 C 56.0625 321.210938 57.195312 322.347656 58.410156 323.484375 Z M 84.394531 295.757812 " fill-opacity="1" fill-rule="nonzero"/><path fill="#fbbc04" d="M 65.910156 274.546875 C 64.46875 272.574219 63.105469 270.53125 61.816406 268.5625 L 29.695312 288.9375 C 31.4375 291.667969 33.257812 294.316406 35.152344 296.894531 Z M 65.910156 274.546875 " fill-opacity="1" fill-rule="nonzero"/><path fill="#fbbc04" d="M 295.757812 290.605469 C 294.089844 292.347656 292.347656 294.089844 290.605469 295.757812 L 316.589844 323.484375 C 317.726562 322.347656 318.9375 321.289062 320.074219 320.074219 C 321.210938 318.9375 322.347656 317.804688 323.484375 316.589844 Z M 295.757812 290.605469 " fill-opacity="1" fill-rule="nonzero"/><path fill="#fbbc04" d="M 106.515625 313.183594 C 104.46875 311.894531 102.5 310.453125 100.53125 309.089844 L 78.183594 339.847656 C 80.832031 341.742188 83.484375 343.5625 86.136719 345.304688 Z M 106.515625 313.183594 " fill-opacity="1" fill-rule="nonzero"/><path fill="#fbbc04" d="M 48.03125 241.589844 C 47.121094 239.316406 46.289062 237.046875 45.53125 234.695312 L 9.394531 246.4375 C 10.378906 249.46875 11.515625 252.574219 12.652344 255.53125 Z M 48.03125 241.589844 " fill-opacity="1" fill-rule="nonzero"/><path fill="#fbbc04" d="M 60.683594 266.742188 C 59.394531 264.695312 58.183594 262.574219 56.96875 260.453125 L 23.636719 278.789062 C 25.226562 281.589844 26.816406 284.394531 28.5625 287.121094 Z M 60.683594 266.742188 " fill-opacity="1" fill-rule="nonzero"/><path fill="#fbbc04" d="M 44.925781 232.726562 C 44.167969 230.453125 43.484375 228.105469 42.878906 225.757812 L 6.0625 235.226562 C 6.894531 238.332031 7.804688 241.4375 8.710938 244.546875 Z M 44.925781 232.726562 " fill-opacity="1" fill-rule="nonzero"/><path fill="#fbbc04" d="M 55.910156 258.636719 C 54.773438 256.515625 53.636719 254.316406 52.574219 252.121094 L 18.183594 268.332031 C 19.546875 271.210938 21.0625 274.089844 22.574219 276.96875 Z M 55.910156 258.636719 " fill-opacity="1" fill-rule="nonzero"/><path fill="#fbbc04" d="M 51.742188 250.226562 C 50.757812 248.03125 49.773438 245.832031 48.863281 243.5625 L 13.484375 257.574219 C 14.695312 260.605469 15.984375 263.5625 17.347656 266.4375 Z M 51.742188 250.226562 " fill-opacity="1" fill-rule="nonzero"/><path fill="#fbbc04" d="M 77.804688 289.089844 C 76.136719 287.273438 74.546875 285.453125 72.953125 283.636719 L 43.636719 307.878906 C 45.683594 310.304688 47.804688 312.726562 50.074219 315.152344 Z M 77.804688 289.089844 " fill-opacity="1" fill-rule="nonzero"/><path fill="#fbbc04" d="M 186.4375 337.046875 C 184.015625 337.046875 181.589844 336.96875 179.167969 336.816406 L 176.816406 374.695312 C 180 374.847656 183.257812 375 186.515625 375 L 186.515625 337.046875 Z M 186.4375 337.046875 " fill-opacity="1" fill-rule="nonzero"/><path fill="#fbbc04" d="M 158.410156 334.242188 C 155.984375 333.789062 153.636719 333.257812 151.289062 332.652344 L 141.816406 369.46875 C 144.925781 370.226562 148.105469 370.910156 151.289062 371.589844 Z M 158.410156 334.242188 " fill-opacity="1" fill-rule="nonzero"/><path fill="#fbbc04" d="M 167.726562 335.757812 C 165.304688 335.453125 162.878906 335.074219 160.53125 334.621094 L 153.410156 371.894531 C 156.589844 372.5 159.773438 372.953125 162.953125 373.410156 Z M 167.726562 335.757812 " fill-opacity="1" fill-rule="nonzero"/><path fill="#fbbc04" d="M 177.046875 336.742188 C 174.621094 336.589844 172.195312 336.363281 169.773438 336.0625 L 165 373.710938 C 168.183594 374.089844 171.4375 374.394531 174.621094 374.621094 Z M 177.046875 336.742188 " fill-opacity="1" fill-rule="nonzero"/><path fill="#fbbc04" d="M 195.832031 336.816406 C 193.410156 336.96875 190.984375 337.046875 188.5625 337.046875 L 188.5625 375 C 191.816406 375 195 374.847656 198.257812 374.695312 Z M 195.832031 336.816406 " fill-opacity="1" fill-rule="nonzero"/><path fill="#fbbc04" d="M 205.226562 336.0625 C 202.804688 336.363281 200.378906 336.589844 197.953125 336.742188 L 200.304688 374.621094 C 203.5625 374.394531 206.742188 374.089844 209.925781 373.710938 Z M 205.226562 336.0625 " fill-opacity="1" fill-rule="nonzero"/><path fill="#fbbc04" d="M 122.878906 322.425781 C 120.683594 321.363281 118.484375 320.226562 116.363281 319.089844 L 98.03125 352.425781 C 100.832031 353.9375 103.710938 355.453125 106.667969 356.816406 Z M 122.878906 322.425781 " fill-opacity="1" fill-rule="nonzero"/><path fill="#fbbc04" d="M 149.242188 332.121094 C 146.894531 331.515625 144.546875 330.832031 142.273438 330.074219 L 130.53125 366.210938 C 133.636719 367.195312 136.667969 368.105469 139.847656 368.863281 Z M 149.242188 332.121094 " fill-opacity="1" fill-rule="nonzero"/><path fill="#fbbc04" d="M 214.46875 334.621094 C 212.121094 335.074219 209.695312 335.453125 207.273438 335.757812 L 212.046875 373.410156 C 215.226562 372.953125 218.410156 372.5 221.589844 371.894531 Z M 214.46875 334.621094 " fill-opacity="1" fill-rule="nonzero"/><path fill="#fbbc04" d="M 114.546875 318.03125 C 112.425781 316.816406 110.304688 315.605469 108.257812 314.316406 L 87.878906 346.4375 C 90.605469 348.183594 93.410156 349.773438 96.210938 351.363281 Z M 114.546875 318.03125 " fill-opacity="1" fill-rule="nonzero"/><path fill="#fbbc04" d="M 131.4375 326.210938 C 129.167969 325.304688 126.96875 324.316406 124.773438 323.332031 L 108.5625 357.726562 C 111.515625 359.089844 114.46875 360.378906 117.425781 361.589844 Z M 131.4375 326.210938 " fill-opacity="1" fill-rule="nonzero"/><path fill="#fbbc04" d="M 140.304688 329.46875 C 137.953125 328.710938 135.683594 327.878906 133.410156 326.96875 L 119.394531 362.347656 C 122.425781 363.484375 125.453125 364.621094 128.484375 365.605469 Z M 140.304688 329.46875 " fill-opacity="1" fill-rule="nonzero"/><path fill="#fbbc04" d="M 266.742188 314.316406 C 264.695312 315.605469 262.574219 316.816406 260.453125 318.03125 L 278.789062 351.363281 C 281.589844 349.773438 284.394531 348.183594 287.121094 346.4375 Z M 266.742188 314.316406 " fill-opacity="1" fill-rule="nonzero"/><path fill="#fbbc04" d="M 289.089844 297.195312 C 287.273438 298.863281 285.453125 300.453125 283.636719 302.046875 L 307.878906 331.363281 C 310.304688 329.316406 312.726562 327.195312 315.152344 324.925781 Z M 289.089844 297.195312 " fill-opacity="1" fill-rule="nonzero"/><path fill="#fbbc04" d="M 281.96875 303.410156 C 280.074219 304.925781 278.183594 306.4375 276.210938 307.878906 L 298.5625 338.636719 C 301.136719 336.742188 303.710938 334.773438 306.210938 332.726562 Z M 281.96875 303.410156 " fill-opacity="1" fill-rule="nonzero"/><path fill="#fbbc04" d="M 50.074219 59.925781 C 47.878906 62.273438 45.757812 64.695312 43.636719 67.195312 L 72.953125 91.4375 C 74.546875 89.546875 76.136719 87.726562 77.804688 85.984375 Z M 50.074219 59.925781 " fill-opacity="1" fill-rule="nonzero"/><path fill="#fbbc04" d="M 79.242188 84.394531 C 80.910156 82.652344 82.652344 80.910156 84.394531 79.242188 L 58.410156 51.515625 C 57.195312 52.652344 56.0625 53.789062 54.925781 54.925781 C 53.789062 56.0625 52.652344 57.195312 51.515625 58.410156 Z M 79.242188 84.394531 " fill-opacity="1" fill-rule="nonzero"/><path fill="#fbbc04" d="M 274.546875 309.089844 C 272.574219 310.53125 270.53125 311.894531 268.5625 313.183594 L 288.9375 345.304688 C 291.667969 343.5625 294.316406 341.742188 296.894531 339.847656 Z M 274.546875 309.089844 " fill-opacity="1" fill-rule="nonzero"/><path fill="#fbbc04" d="M 67.121094 98.789062 C 68.5625 96.816406 70.074219 94.925781 71.589844 93.03125 L 42.273438 68.789062 C 40.226562 71.289062 38.257812 73.863281 36.363281 76.4375 Z M 67.121094 98.789062 " fill-opacity="1" fill-rule="nonzero"/><path fill="#fbbc04" d="M 241.589844 326.96875 C 239.316406 327.878906 237.046875 328.710938 234.695312 329.46875 L 246.4375 365.605469 C 249.46875 364.621094 252.574219 363.484375 255.53125 362.347656 Z M 241.589844 326.96875 " fill-opacity="1" fill-rule="nonzero"/><path fill="#fbbc04" d="M 232.726562 330.074219 C 230.453125 330.832031 228.105469 331.515625 225.757812 332.121094 L 235.226562 368.9375 C 238.332031 368.105469 241.4375 367.195312 244.546875 366.289062 Z M 232.726562 330.074219 " fill-opacity="1" fill-rule="nonzero"/><path fill="#fbbc04" d="M 223.710938 332.652344 C 221.363281 333.257812 219.015625 333.789062 216.589844 334.242188 L 223.710938 371.515625 C 226.894531 370.910156 230 370.226562 233.183594 369.394531 Z M 223.710938 332.652344 " fill-opacity="1" fill-rule="nonzero"/><path fill="#fbbc04" d="M 250.226562 323.257812 C 248.03125 324.242188 245.832031 325.226562 243.5625 326.136719 L 257.574219 361.515625 C 260.605469 360.304688 263.5625 359.015625 266.4375 357.652344 Z M 250.226562 323.257812 " fill-opacity="1" fill-rule="nonzero"/><path fill="#fbbc04" d="M 258.636719 319.089844 C 256.515625 320.226562 254.316406 321.363281 252.121094 322.425781 L 268.332031 356.816406 C 271.210938 355.453125 274.089844 353.9375 276.96875 352.425781 Z M 258.636719 319.089844 " fill-opacity="1" fill-rule="nonzero"/><path fill="#fbbc04" d="M 86.816406 222.425781 L 86.816406 212.347656 L 100.226562 212.347656 L 100.226562 172.953125 L 88.9375 172.953125 L 88.9375 165.304688 C 94.695312 164.242188 99.546875 162.425781 103.410156 160 L 112.574219 160 L 112.574219 212.347656 L 124.316406 212.347656 L 124.316406 222.425781 Z M 86.816406 222.425781 " fill-opacity="1" fill-rule="nonzero"/><path fill="#fbbc04" d="M 155.226562 223.636719 C 147.347656 223.636719 141.515625 219.695312 137.878906 211.894531 C 135.378906 206.4375 134.089844 199.46875 134.089844 191.0625 C 134.089844 176.289062 137.726562 166.589844 145 161.816406 C 147.953125 159.925781 151.363281 158.9375 155.226562 158.9375 C 163.410156 158.9375 169.242188 163.03125 172.804688 171.136719 C 175.074219 176.4375 176.289062 183.105469 176.289062 191.0625 C 176.289062 205.152344 172.953125 214.773438 166.363281 219.925781 C 163.105469 222.347656 159.394531 223.636719 155.226562 223.636719 Z M 155.226562 214.015625 C 161.515625 213.9375 164.621094 206.289062 164.621094 191.0625 C 164.316406 176.4375 161.136719 168.9375 155.226562 168.5625 C 149.847656 168.5625 146.742188 173.9375 145.984375 184.621094 C 145.832031 186.589844 145.757812 188.710938 145.757812 191.0625 C 145.757812 206.289062 148.9375 213.9375 155.226562 214.015625 Z M 155.226562 214.015625 " fill-opacity="1" fill-rule="nonzero"/><path fill="#fbbc04" d="M 205.683594 223.636719 C 197.804688 223.636719 191.96875 219.695312 188.332031 211.894531 C 185.832031 206.4375 184.546875 199.46875 184.546875 191.0625 C 184.546875 176.289062 188.183594 166.589844 195.453125 161.816406 C 198.410156 159.925781 201.816406 158.9375 205.683594 158.9375 C 213.863281 158.9375 219.695312 163.03125 223.257812 171.136719 C 225.53125 176.4375 226.742188 183.105469 226.742188 191.0625 C 226.742188 205.152344 223.410156 214.773438 216.816406 219.925781 C 213.5625 222.347656 209.925781 223.636719 205.683594 223.636719 Z M 205.683594 214.015625 C 211.96875 213.9375 215.074219 206.289062 215.074219 191.0625 C 214.773438 176.4375 211.589844 168.9375 205.683594 168.5625 C 200.304688 168.5625 197.195312 173.9375 196.4375 184.621094 C 196.289062 186.589844 196.210938 188.710938 196.210938 191.0625 C 196.289062 206.289062 199.394531 213.9375 205.683594 214.015625 Z M 205.683594 214.015625 " fill-opacity="1" fill-rule="nonzero"/><path fill="#fbbc04" d="M 245.832031 197.652344 C 241.667969 197.652344 238.5625 195.152344 236.4375 190.074219 C 235.074219 186.667969 234.316406 182.5 234.316406 177.652344 C 234.316406 169.394531 236.136719 163.636719 239.773438 160.378906 C 241.515625 158.789062 243.5625 157.953125 245.832031 157.953125 C 250.226562 157.953125 253.410156 160.605469 255.378906 165.832031 C 256.589844 169.089844 257.195312 173.03125 257.195312 177.574219 C 257.195312 185.832031 255.453125 191.589844 251.96875 195 C 250.226562 196.816406 248.183594 197.652344 245.832031 197.652344 Z M 245.832031 190.605469 C 248.410156 190.605469 250 187.804688 250.53125 182.121094 C 250.683594 180.757812 250.683594 179.242188 250.683594 177.652344 C 250.53125 169.394531 248.9375 165.226562 245.832031 165 C 243.257812 165 241.667969 167.804688 241.136719 173.484375 C 240.984375 174.773438 240.984375 176.210938 240.984375 177.652344 C 240.984375 185.226562 242.273438 189.46875 244.847656 190.378906 C 245.226562 190.53125 245.53125 190.605469 245.832031 190.605469 Z M 247.425781 222.878906 L 272.953125 158.03125 L 278.484375 158.03125 L 252.878906 222.878906 Z M 280.074219 222.878906 C 275.910156 222.878906 272.804688 220.378906 270.683594 215.453125 C 269.242188 212.046875 268.484375 207.878906 268.484375 202.953125 C 268.484375 194.925781 270.226562 189.167969 273.789062 185.757812 C 275.605469 184.089844 277.652344 183.183594 280 183.183594 C 284.242188 183.183594 287.425781 185.757812 289.46875 190.832031 C 290.757812 194.167969 291.4375 198.183594 291.4375 202.953125 C 291.4375 210.984375 289.695312 216.816406 286.289062 220.226562 C 284.46875 221.96875 282.425781 222.878906 280.074219 222.878906 Z M 280.074219 215.832031 C 282.652344 215.832031 284.242188 212.953125 284.695312 207.195312 C 284.847656 205.832031 284.847656 204.394531 284.847656 202.953125 C 284.773438 194.546875 283.183594 190.304688 280 190.304688 C 276.96875 190.304688 275.304688 193.9375 275.074219 201.210938 C 275.074219 201.816406 275.074219 202.425781 275.074219 202.953125 C 275.074219 210.453125 276.363281 214.695312 278.9375 215.683594 C 279.394531 215.832031 279.695312 215.832031 280.074219 215.832031 Z M 280.074219 215.832031 " fill-opacity="1" fill-rule="nonzero"/></svg>